# xmcd
#
# Track frame offsets:
#	150
#	10755
#	23634
#	36224
#	50240
#	66776
#	79798
#	95524
#	108311
#	122753
#	135774
#
# Disc length: 1993 seconds
#
# Revision: 1
# Processed by: cddbd v1.5.1PL0 Copyright (c) Steve Scherf et al.
# Submitted via: audiograbber 1.83.01
#
DISCID=8507c70b
DTITLE=Eighteen Wheeler - Das ist unser Leben
DYEAR=2002
DGENRE=Country
TTITLE0=Countrymusic, das ist unser Leben
TTITLE1=Tom Tom Turnaround
TTITLE2=Folsom Prison Blues
TTITLE3=Rose Garden
TTITLE4=Poor Boy Blues
TTITLE5=Take it easy altes Haus
TTITLE6=Blanket on the ground
TTITLE7=Big River
TTITLE8=Down at the twist and shout
TTITLE9=Me and you and a dog named Boo
TTITLE10=Lover please
EXTD=Contact Hartmut Andert, Tel. +49-5723-8796\nsee also http://www.eighteen-w
EXTD=heeler.de\nProduction by Kellerstudio Kirchhorsten by S. Fiedler/E. Beutle
EXTD=r
EXTT0=Text and music by Hartmut Andert
EXTT1=
EXTT2=
EXTT3=
EXTT4=
EXTT5=
EXTT6=
EXTT7=
EXTT8=
EXTT9=
EXTT10=
PLAYORDER=
